<svg xmlns="http://www.w3.org/2000/svg">
<symbol id="heart-icon" viewBox="0 0 24 24" fill="none" >
<g>
<path d="M20.4578 4.59133C19.9691 4.08683 19.3889 3.68663 18.7503 3.41358C18.1117 3.14054 17.4272 3 16.7359 3C16.0446 3 15.3601 3.14054 14.7215 3.41358C14.0829 3.68663 13.5026 4.08683 13.0139 4.59133L11.9997 5.63785L10.9855 4.59133C9.99842 3.57276 8.6596 3.00053 7.26361 3.00053C5.86761 3.00053 4.52879 3.57276 3.54168 4.59133C2.55456 5.6099 2 6.99139 2 8.43187C2 9.87235 2.55456 11.2538 3.54168 12.2724L4.55588 13.3189L11.9997 21L19.4436 13.3189L20.4578 12.2724C20.9467 11.7681 21.3346 11.1694 21.5992 10.5105C21.8638 9.85148 22 9.14517 22 8.43187C22 7.71857 21.8638 7.01225 21.5992 6.35328C21.3346 5.69431 20.9467 5.09559 20.4578 4.59133V4.59133Z" stroke="#5B6773" stroke-width="2" stroke-linecap="round" stroke-linejoin="round"/>
</g>
</symbol>
<symbol id="cart-icon" viewBox="0 0 24 24" fill="none"><g>
<path d="M9 22C9.55228 22 10 21.5523 10 21C10 20.4477 9.55228 20 9 20C8.44772 20 8 20.4477 8 21C8 21.5523 8.44772 22 9 22Z" stroke="#5B6773" stroke-width="2" stroke-linecap="round" stroke-linejoin="round"/>
<path d="M20 22C20.5523 22 21 21.5523 21 21C21 20.4477 20.5523 20 20 20C19.4477 20 19 20.4477 19 21C19 21.5523 19.4477 22 20 22Z" stroke="#5B6773" stroke-width="2" stroke-linecap="round" stroke-linejoin="round"/>
<path d="M1 1H5L7.68 14.39C7.77144 14.8504 8.02191 15.264 8.38755 15.5583C8.75318 15.8526 9.2107 16.009 9.68 16H19.4C19.8693 16.009 20.3268 15.8526 20.6925 15.5583C21.0581 15.264 21.3086 14.8504 21.4 14.39L23 6H6" stroke="#5B6773" stroke-width="2" stroke-linecap="round" stroke-linejoin="round"/></g>
</symbol>
<symbol id="product-arrow" viewBox="0 0 21 16"><g>
<path d="M19.9197 8.70711C20.3102 8.31658 20.3102 7.68342 19.9197 7.29289L13.5557 0.928932C13.1652 0.538408 12.5321 0.538408 12.1415 0.928932C11.751 1.31946 11.751 1.95262 12.1415 2.34315L17.7984 8L12.1415 13.6569C11.751 14.0474 11.751 14.6805 12.1415 15.0711C12.5321 15.4616 13.1652 15.4616 13.5557 15.0711L19.9197 8.70711ZM0 9H19.2126V7H0V9Z"/>
</g></symbol>
</svg>