<svg width="14" height="14" viewBox="0 0 14 14" fill="none" xmlns="http://www.w3.org/2000/svg">
<g clip-path="url(#clip0_807_2827)">
<path d="M8.77868 2.91683C9.34844 3.02799 9.87207 3.30665 10.2826 3.71712C10.693 4.1276 10.9717 4.65123 11.0828 5.221M8.77868 0.583496C9.96242 0.715001 11.0663 1.2451 11.909 2.08675C12.7517 2.9284 13.2832 4.03158 13.4162 5.21516M12.8328 9.87016V11.6202C12.8335 11.7826 12.8002 11.9434 12.7351 12.0923C12.6701 12.2411 12.5746 12.3748 12.4549 12.4846C12.3352 12.5944 12.1938 12.678 12.04 12.7301C11.8861 12.7821 11.723 12.8015 11.5612 12.7868C9.76617 12.5918 8.04193 11.9784 6.52701 10.996C5.11758 10.1004 3.92263 8.90543 3.02701 7.496C2.04117 5.9742 1.42766 4.24158 1.23618 2.4385C1.2216 2.27718 1.24077 2.11461 1.29247 1.96111C1.34417 1.80761 1.42726 1.66656 1.53646 1.54694C1.64566 1.42732 1.77857 1.33174 1.92672 1.2663C2.07488 1.20086 2.23505 1.16698 2.39701 1.16683H4.14701C4.43011 1.16404 4.70456 1.26429 4.91921 1.44889C5.13386 1.63349 5.27406 1.88984 5.31368 2.17016C5.38754 2.7302 5.52453 3.28009 5.72201 3.80933C5.8005 4.01812 5.81748 4.24503 5.77096 4.46318C5.72443 4.68132 5.61635 4.88156 5.45951 5.04016L4.71868 5.781C5.54909 7.2414 6.75828 8.45059 8.21868 9.281L8.95951 8.54016C9.11812 8.38333 9.31835 8.27524 9.5365 8.22872C9.75465 8.18219 9.98156 8.19918 10.1903 8.27766C10.7196 8.47515 11.2695 8.61213 11.8295 8.686C12.1129 8.72597 12.3717 8.8687 12.5567 9.08703C12.7417 9.30537 12.8399 9.58408 12.8328 9.87016Z" stroke="#5B6773" stroke-linecap="round" stroke-linejoin="round"/>
</g>
<defs>
<clipPath id="clip0_807_2827">
<rect width="14" height="14" fill="white"/>
</clipPath>
</defs>
</svg>
