<svg width="41" height="40" viewBox="0 0 41 40" fill="none" xmlns="http://www.w3.org/2000/svg">
<path d="M29.384 19.6064C29.5793 19.8017 29.5793 20.1183 29.384 20.3135L26.202 23.4955C26.0068 23.6908 25.6902 23.6908 25.4949 23.4955C25.2997 23.3002 25.2997 22.9837 25.4949 22.7884L28.3234 19.96L25.4949 17.1315C25.2997 16.9363 25.2997 16.6197 25.4949 16.4244C25.6902 16.2292 26.0068 16.2292 26.202 16.4244L29.384 19.6064ZM11.0117 19.46L29.0305 19.46V20.46L11.0117 20.46V19.46Z" fill="#1C252E"/>
<path d="M1.00035 19.9601C1.00035 30.4286 9.51339 38.9202 20.0212 38.9202C30.5289 38.9202 39.042 30.4286 39.042 19.9601C39.042 9.49158 30.5289 1 20.0212 1C9.51339 1 1.00035 9.49158 1.00035 19.9601Z" stroke="#1C252E" stroke-width="2"/>
</svg>
