<svg width="30" height="30" viewBox="0 0 30 30" fill="none" xmlns="http://www.w3.org/2000/svg">
<circle cx="15" cy="15" r="14.5" stroke="#C4C4C4" stroke-opacity="0.3"/>
<path fill-rule="evenodd" clip-rule="evenodd" d="M13.35 9.05C13.35 8.96716 13.4172 8.9 13.5 8.9H16.8C16.8828 8.9 16.95 8.96716 16.95 9.05V10.25H14.7H13.35V9.05ZM12.45 10.25V9.05C12.45 8.4701 12.9201 8 13.5 8H16.8C17.3799 8 17.85 8.4701 17.85 9.05V10.25H21V11.15H20.515L19.615 22.25H10.696L9.49603 11.15H9V10.25H12.45ZM10.4013 11.15L11.504 21.35H18.785L19.612 11.15H10.4013ZM12.5996 19.55V12.95H13.4996V19.55H12.5996ZM14.7 12.95V19.55H15.6V12.95H14.7ZM16.8 19.55V12.95H17.7V19.55H16.8Z" fill="#8B8B8B"/>
</svg>
